<svg id="Layer_1" data-name="Layer 1" xmlns="http://www.w3.org/2000/svg" viewBox="0 0 585 336"><defs><style>.cls-1,.cls-10,.cls-3,.cls-4,.cls-6{fill:none;}.cls-1,.cls-7{stroke:#000;}.cls-1,.cls-10,.cls-3,.cls-6,.cls-7,.cls-8{stroke-miterlimit:10;}.cls-2{fill:#46b05a;}.cls-10,.cls-3{stroke:#fff;}.cls-3{stroke-width:1.3px;}.cls-5{fill:#07a84f;}.cls-6{stroke:#07a84f;stroke-width:3px;}.cls-7{stroke-width:2px;}.cls-8{stroke:#020202;stroke-width:0.35px;}.cls-9{fill:#fff;}</style></defs><path d="M246.6,26.4a2.18,2.18,0,0,1,.5-.4l.6-.3a1.45,1.45,0,0,1,.7-.2,2.2,2.2,0,0,1,.8-.1,3.55,3.55,0,0,1,1,.2,2,2,0,0,1,.8.4,1.79,1.79,0,0,1,.5.7,2.92,2.92,0,0,1,.2.9,1.49,1.49,0,0,1-.2.9,2.51,2.51,0,0,1-.4.7c-.2.2-.3.4-.5.5l-.5.4a.78.78,0,0,0-.4.4.76.76,0,0,0-.2.4l-.1,1.1h-.8l-.1-1.2a.75.75,0,0,1,.1-.5.78.78,0,0,1,.4-.4c.2-.1.3-.3.5-.4a2.18,2.18,0,0,0,.5-.4,1.27,1.27,0,0,0,.4-.6,1.85,1.85,0,0,0,.2-.7.75.75,0,0,0-.1-.5,1.38,1.38,0,0,0-.3-.4,2.19,2.19,0,0,0-.5-.3,1.27,1.27,0,0,0-.6-.1,1.7,1.7,0,0,0-.7.1c-.2.1-.3.1-.5.2s-.2.1-.3.2-.1.1-.2.1-.2-.1-.3-.2Zm1.4,8.8a.37.37,0,0,1,.1-.3c0-.1.1-.2.2-.3.2-.3.6-.3,1-.2a1.21,1.21,0,0,1,.5.5.85.85,0,0,1,0,.7c0,.1-.1.2-.2.3s-.2.1-.3.2-.2.1-.3.1a.37.37,0,0,1-.3-.1c-.1,0-.2-.1-.3-.2s-.1-.2-.2-.3-.2-.3-.2-.4Z"/><circle class="cls-1" cx="248.9" cy="30.8" r="9.9"/><circle class="cls-2" cx="198.9" cy="30.8" r="9.9"/><line class="cls-3" x1="203.7" y1="27.5" x2="197.9" y2="33.6"/><line class="cls-3" x1="198.2" y1="34.2" x2="194.1" y2="30.5"/><line class="cls-1" x1="67" y1="36.3" x2="75.6" y2="27.8"/><line class="cls-1" x1="74.89" y1="27.8" x2="83.49" y2="36.4"/><path class="cls-4" d="M291.2,27.5c0-.5,4.2-.8,9.4-.8"/><path class="cls-5" d="M305.5,27h-16a1.54,1.54,0,0,0-1.5,1.5V40.7c0,.8,19,.8,19,0V28.5A1.54,1.54,0,0,0,305.5,27Z"/><path class="cls-6" d="M292,29.4a6.46,6.46,0,0,1,1.6-6.6,5.75,5.75,0,0,1,7-.4c2.1,1.4,3,4.3,2.5,7.3Z"/><path class="cls-1" d="M356.7,41.5H335.3a1.79,1.79,0,0,1-1.8-1.8V27.3a1.79,1.79,0,0,1,1.8-1.8h21.4a1.79,1.79,0,0,1,1.8,1.8V39.7A1.79,1.79,0,0,1,356.7,41.5Z"/><rect x="350.5" y="32" width="6" height="3"/><line class="cls-1" x1="334" y1="29.5" x2="358" y2="29.5"/><circle class="cls-1" cx="397.9" cy="30.8" r="9.9"/><circle class="cls-1" cx="442.9" cy="30.7" r="9.9"/><circle class="cls-7" cx="442.85" cy="30.65" r="6.95"/><path d="M498,26.9a9.83,9.83,0,0,0-5.3-5.3,10.06,10.06,0,0,0-3.9-.8,9.57,9.57,0,0,0-3.8.8,9.83,9.83,0,0,0-5.3,5.3,10,10,0,0,0-.8,3.8,10.87,10.87,0,0,0,.8,3.9,9.83,9.83,0,0,0,5.3,5.3,10,10,0,0,0,3.8.8,10.87,10.87,0,0,0,3.9-.8,9.52,9.52,0,0,0,5.3-5.3,10.06,10.06,0,0,0,.8-3.9,10.36,10.36,0,0,0-.8-3.8Zm-1.6,8.3a8.92,8.92,0,0,1-3.2,3.2,8.31,8.31,0,0,1-4.4,1.2,8,8,0,0,1-3.4-.7,9,9,0,0,1-4.7-4.7,8,8,0,0,1-.7-3.4,8.56,8.56,0,0,1,1.2-4.4,8.92,8.92,0,0,1,3.2-3.2,8.31,8.31,0,0,1,4.4-1.2,8.56,8.56,0,0,1,4.4,1.2,8.92,8.92,0,0,1,3.2,3.2,8.31,8.31,0,0,1,1.2,4.4,8.56,8.56,0,0,1-1.2,4.4Z"/><path d="M489.5,30.7V25.1a.6.6,0,0,0-1.2,0v5.8c0,.2,0,.4.2.5l3.2,3.2a.57.57,0,1,0,.8-.8Z"/><path id="_Compound_Path_5" data-name=" Compound Path 5" class="cls-8" d="M543.7,29.9l-9.8-9.1-9.8,9.1c-.1.2-.1.4.1.5a.3.3,0,0,0,.4,0l1.1-1.1V40.7h16.4V29.4l1.1,1.1c.1.1.1.1.2.1s.3-.2.3-.4A.19.19,0,0,0,543.7,29.9ZM531.9,40.1V34.6a2.1,2.1,0,1,1,4.2,0h0v5.5Zm9.6,0h-4.8V34.6a2.7,2.7,0,0,0-5.4,0h0v5.5h-4.8V28.7l7.5-7,7.5,7Z"/><path class="cls-9" d="M540.71,84.54h-12.6a2.12,2.12,0,0,1-2.11-2.1v-7.7a2.14,2.14,0,0,1,.62-1.49,2.11,2.11,0,0,1,1.49-.61h12.6a2.1,2.1,0,0,1,2.1,2.1v7.7a2.12,2.12,0,0,1-2.1,2.1ZM528.11,74a.7.7,0,0,0-.5.2.71.71,0,0,0-.21.5v7.7a.69.69,0,0,0,.21.49.67.67,0,0,0,.5.21h12.6a.67.67,0,0,0,.49-.21.69.69,0,0,0,.21-.49v-7.7a.71.71,0,0,0-.21-.5.7.7,0,0,0-.49-.2Z"/><path class="cls-9" d="M540,74h-11.2a.67.67,0,0,1-.5-.21.7.7,0,0,1-.2-.49v-4.2a5.6,5.6,0,0,1,5.6-5.6h1.4a5.6,5.6,0,0,1,5.6,5.6v4.2a.71.71,0,0,1-.21.49A.67.67,0,0,1,540,74Zm-10.5-1.4h9.8v-3.5a4.2,4.2,0,0,0-4.2-4.2h-1.4a4.2,4.2,0,0,0-4.2,4.2Z"/><path class="cls-9" d="M534.41,78.94a1.36,1.36,0,0,1-.78-.24,1.43,1.43,0,0,1-.52-.62,1.5,1.5,0,0,1-.08-.81,1.42,1.42,0,0,1,.39-.72,1.3,1.3,0,0,1,.71-.38,1.42,1.42,0,0,1,1.44.59,1.43,1.43,0,0,1,.24.78,1.41,1.41,0,0,1-.41,1,1.43,1.43,0,0,1-1,.41Z"/><path class="cls-9" d="M535.11,78.24h-1.4V81h1.4Z"/><line class="cls-1" x1="46.08" y1="27.8" x2="37.48" y2="36.3"/><line class="cls-1" x1="38.19" y1="36.3" x2="29.59" y2="27.7"/><line class="cls-1" x1="29.95" y1="79.7" x2="46.44" y2="63.4"/><line class="cls-1" x1="29.95" y1="63.4" x2="46.44" y2="79.89"/><line class="cls-10" x1="144.1" y1="36.25" x2="152.7" y2="27.75"/><line class="cls-10" x1="151.99" y1="27.75" x2="160.59" y2="36.35"/><line class="cls-10" x1="123.18" y1="27.75" x2="114.58" y2="36.25"/><line class="cls-10" x1="115.29" y1="36.25" x2="106.69" y2="27.65"/></svg>