<svg id="Layer_1" data-name="Layer 1" xmlns="http://www.w3.org/2000/svg" viewBox="0 0 585 336"><defs><style>.cls-1,.cls-2,.cls-5,.cls-9{stroke:#000;}.cls-1,.cls-10,.cls-11,.cls-13,.cls-14,.cls-2,.cls-4,.cls-5,.cls-8,.cls-9{stroke-miterlimit:10;}.cls-1{stroke-width:0.75px;}.cls-14,.cls-2,.cls-4,.cls-5,.cls-6,.cls-8{fill:none;}.cls-14,.cls-2,.cls-5,.cls-9{stroke-width:2px;}.cls-3{fill:#46b05a;}.cls-11,.cls-14,.cls-4{stroke:#fff;}.cls-4{stroke-width:1.3px;}.cls-14,.cls-5{stroke-linecap:round;}.cls-7{fill:#07a84f;}.cls-8{stroke:#07a84f;stroke-width:3px;}.cls-10,.cls-13{stroke:#020202;}.cls-11,.cls-12{fill:#fff;}.cls-11,.cls-13{stroke-width:0.5px;}</style></defs><path class="cls-1" d="M246.6,26.4a2.15,2.15,0,0,1,.5-.4l.6-.3a1.42,1.42,0,0,1,.7-.2,2.18,2.18,0,0,1,.8-.1,3.78,3.78,0,0,1,1,.2,2,2,0,0,1,.8.4,1.84,1.84,0,0,1,.5.7,3.09,3.09,0,0,1,.2.9,1.5,1.5,0,0,1-.2.9,2.44,2.44,0,0,1-.4.7c-.2.2-.3.4-.5.5l-.5.4a.78.78,0,0,0-.4.4.76.76,0,0,0-.2.4l-.1,1.1h-.8l-.1-1.2a.74.74,0,0,1,.1-.5.78.78,0,0,1,.4-.4c.2-.1.3-.3.5-.4a2.15,2.15,0,0,0,.5-.4,1.28,1.28,0,0,0,.4-.6,1.94,1.94,0,0,0,.2-.7.74.74,0,0,0-.1-.5,1.31,1.31,0,0,0-.3-.4,2.29,2.29,0,0,0-.5-.3,1.23,1.23,0,0,0-.6-.1,1.66,1.66,0,0,0-.7.1c-.2.1-.3.1-.5.2a.77.77,0,0,0-.3.2c-.1.1-.1.1-.2.1s-.2-.1-.3-.2Zm1.4,8.8a.37.37,0,0,1,.1-.3c0-.1.1-.2.2-.3.2-.3.6-.3,1-.2a1.21,1.21,0,0,1,.5.5.85.85,0,0,1,0,.7c0,.1-.1.2-.2.3s-.2.1-.3.2a.5.5,0,0,1-.6,0c-.1,0-.2-.1-.3-.2s-.1-.2-.2-.3A.76.76,0,0,1,248,35.2Z"/><circle class="cls-2" cx="248.9" cy="30.8" r="9.9"/><circle class="cls-3" cx="198.9" cy="30.8" r="9.9"/><line class="cls-4" x1="203.7" y1="27.5" x2="197.9" y2="33.6"/><line class="cls-4" x1="198.2" y1="34.2" x2="194.1" y2="30.5"/><path class="cls-5" d="M65.3,36.63l8.35-8.25a.35.35,0,0,1,.5,0l8.35,8.35"/><path class="cls-6" d="M291.2,27.5c0-.5,4.2-.8,9.4-.8"/><path class="cls-7" d="M305.5,27h-16a1.54,1.54,0,0,0-1.5,1.5V40.7c0,.8,19,.8,19,0V28.5A1.54,1.54,0,0,0,305.5,27Z"/><path class="cls-8" d="M292,29.4a6.46,6.46,0,0,1,1.6-6.6,5.74,5.74,0,0,1,7-.4c2.1,1.4,3,4.3,2.5,7.3Z"/><path class="cls-2" d="M356.7,41.5H335.3a1.79,1.79,0,0,1-1.8-1.78V27.3a1.79,1.79,0,0,1,1.78-1.8H356.7a1.79,1.79,0,0,1,1.8,1.78V39.7a1.79,1.79,0,0,1-1.78,1.8Z"/><rect x="350.5" y="32" width="6" height="3"/><line class="cls-2" x1="334" y1="29.5" x2="358" y2="29.5"/><circle class="cls-2" cx="397.9" cy="30.8" r="9.9"/><circle class="cls-2" cx="442.9" cy="30.7" r="9.9"/><circle class="cls-9" cx="442.9" cy="30.7" r="6.48"/><path class="cls-10" d="M498,26.9a9.83,9.83,0,0,0-5.3-5.3,10,10,0,0,0-3.9-.8,9.56,9.56,0,0,0-3.8.8,9.83,9.83,0,0,0-5.3,5.3,10.1,10.1,0,0,0-.8,3.8,10.87,10.87,0,0,0,.8,3.9,9.83,9.83,0,0,0,5.3,5.3,10.1,10.1,0,0,0,3.8.8,10.87,10.87,0,0,0,3.9-.8,9.52,9.52,0,0,0,5.3-5.3,10,10,0,0,0,.8-3.9A10.3,10.3,0,0,0,498,26.9Zm-1.6,8.3a8.92,8.92,0,0,1-3.2,3.2,8.33,8.33,0,0,1-4.4,1.2,8,8,0,0,1-3.4-.7,9,9,0,0,1-4.7-4.7,8,8,0,0,1-.7-3.4,8.51,8.51,0,0,1,1.2-4.4,8.92,8.92,0,0,1,3.2-3.2,8.33,8.33,0,0,1,4.4-1.2,8.51,8.51,0,0,1,4.4,1.2,8.92,8.92,0,0,1,3.2,3.2,8.33,8.33,0,0,1,1.2,4.4A8.51,8.51,0,0,1,496.4,35.2Z"/><path class="cls-10" d="M489.5,30.7V25.1a.6.6,0,0,0-1.2,0h0v5.8c0,.2,0,.4.2.5l3.2,3.2a.57.57,0,1,0,.9-.7.47.47,0,0,0-.1-.1Z"/><path id="_Compound_Path_5" data-name=" Compound Path 5" class="cls-10" d="M543.7,29.9l-9.8-9.1-9.8,9.1c-.1.2-.1.4.1.5a.3.3,0,0,0,.4,0l1.1-1.1V40.7h16.4V29.4l1.1,1.1c.1.1.1.1.2.1a.45.45,0,0,0,.3-.4.19.19,0,0,0,0-.27ZM531.9,40.1V34.6a2.1,2.1,0,1,1,4.2,0h0v5.5Zm9.6,0h-4.8V34.6a2.7,2.7,0,0,0-5.4,0h0v5.5h-4.8V28.7l7.5-7,7.5,7Z"/><path class="cls-11" d="M540.71,84.54h-12.6a2.12,2.12,0,0,1-2.11-2.1v-7.7a2.1,2.1,0,0,1,2.11-2.1h12.6a2.1,2.1,0,0,1,2.1,2.1v7.7A2.11,2.11,0,0,1,540.71,84.54ZM528.11,74a.7.7,0,0,0-.5.2.71.71,0,0,0-.21.5v7.7a.71.71,0,0,0,.21.49.67.67,0,0,0,.5.21h12.6a.69.69,0,0,0,.49-.21.71.71,0,0,0,.21-.49V74.7a.71.71,0,0,0-.21-.5.7.7,0,0,0-.49-.2Z"/><path class="cls-11" d="M540,74H528.8a.67.67,0,0,1-.5-.21.7.7,0,0,1-.2-.49V69.1a5.6,5.6,0,0,1,5.6-5.6h1.4a5.6,5.6,0,0,1,5.6,5.6v4.2a.71.71,0,0,1-.21.49A.69.69,0,0,1,540,74Zm-10.5-1.4h9.8V69.1a4.2,4.2,0,0,0-4.2-4.2h-1.4a4.2,4.2,0,0,0-4.2,4.2h0Z"/><path class="cls-12" d="M534.41,78.94a1.36,1.36,0,0,1-.78-.24,1.43,1.43,0,0,1-.52-.62,1.5,1.5,0,0,1-.08-.81,1.46,1.46,0,0,1,.39-.72,1.3,1.3,0,0,1,.71-.38,1.41,1.41,0,0,1,1.44.59,1.43,1.43,0,0,1,.24.78A1.4,1.4,0,0,1,534.4,79Z"/><path class="cls-11" d="M535.11,78.24h-1.4V81h1.4Z"/><line class="cls-5" x1="29.95" y1="79.7" x2="46.44" y2="63.4"/><line class="cls-5" x1="29.95" y1="63.4" x2="46.44" y2="79.89"/><path class="cls-13" d="M494.6,85.07H482A2.12,2.12,0,0,1,479.9,83v-7.7a2.1,2.1,0,0,1,2.11-2.1H494.6a2.1,2.1,0,0,1,2.1,2.1V83A2.12,2.12,0,0,1,494.6,85.07ZM482,74.53a.69.69,0,0,0-.5.2.76.76,0,0,0-.21.5v7.7a.75.75,0,0,0,.21.49.73.73,0,0,0,.5.21h12.6a.72.72,0,0,0,.7-.7v-7.7a.67.67,0,0,0-.21-.5.68.68,0,0,0-.49-.2Z"/><path class="cls-13" d="M493.89,74.53h-11.2a.73.73,0,0,1-.5-.21.74.74,0,0,1-.2-.49v-4.2a5.6,5.6,0,0,1,5.6-5.6H489a5.59,5.59,0,0,1,5.6,5.6v4.2a.72.72,0,0,1-.7.7Zm-10.5-1.4h9.8v-3.5a4.2,4.2,0,0,0-4.2-4.2h-1.4a4.21,4.21,0,0,0-4.2,4.2h0Z"/><path d="M488.3,79.47a1.38,1.38,0,0,1-.78-.24,1.56,1.56,0,0,1-.52-.62,1.6,1.6,0,0,1-.08-.81,1.45,1.45,0,0,1,.39-.72,1.34,1.34,0,0,1,.71-.38,1.4,1.4,0,0,1,1.44.59,1.41,1.41,0,0,1-.17,1.78,1.41,1.41,0,0,1-1,.41Z"/><path class="cls-13" d="M489,78.77h-1.4v2.76H489Z"/><path class="cls-5" d="M46.08,27.82l-8.35,8.26a.37.37,0,0,1-.5,0l-8.35-8.36"/><path class="cls-14" d="M144.45,36.35l8.35-8.25a.34.34,0,0,1,.49,0l8.36,8.35"/><path class="cls-14" d="M125.23,27.55l-8.35,8.25a.35.35,0,0,1-.5,0L108,27.45"/></svg>