<?xml version="1.0" encoding="utf-8"?>
<!-- Generator: Adobe Illustrator 21.1.0, SVG Export Plug-In . SVG Version: 6.00 Build 0)  -->
<svg version="1.1" id="Layer_1" xmlns="http://www.w3.org/2000/svg" xmlns:xlink="http://www.w3.org/1999/xlink" x="0px" y="0px"
	 viewBox="0 0 175 26" style="enable-background:new 0 0 175 26;" xml:space="preserve">
<style type="text/css">
	.st0{fill:#FFFFFF;}
</style>
<g>
	<polygon class="st0" points="5.4,5.2 5.4,10.8 15.6,10.8 15.6,15 5.4,15 5.4,25.3 0.5,25.3 0.5,1 17.1,1 17.1,5.2 	"/>
	<polygon class="st0" points="20.1,25.2 20.1,1 25,1 25,21.1 37.1,21.1 37.1,25.3 20.1,25.3 	"/>
	<path class="st0" d="M54.1,1H49l-9.5,24.3h5.3l2.1-5.7h9.6l2.2,5.7H64L54.1,1z M48.4,15.7l3.2-9l3.2,9H48.4z"/>
	<polygon class="st0" points="71.2,9.4 71.2,25.3 66.4,25.3 66.4,1 71.4,1 81.3,17.2 81.3,1 86.1,1 86.1,25.3 80.9,25.3 	"/>
	<polygon class="st0" points="94.9,9.4 94.9,25.3 90.1,25.3 90.1,1 95.1,1 105,17.2 105,1 109.9,1 109.9,25.3 104.7,25.3 	"/>
	<polygon class="st0" points="132.2,21.2 132.2,25.3 113.8,25.3 113.8,1 131.7,1 131.7,5.2 118.7,5.2 118.7,10.4 130.8,10.4 
		130.8,14.6 118.7,14.6 118.7,21.2 	"/>
	<polygon class="st0" points="136.3,25.2 136.3,1 141.1,1 141.1,21.1 153.4,21.1 153.4,25.3 136.3,25.3 	"/>
	<path class="st0" d="M167.5,5.5c-0.9-0.6-2-0.9-3-0.8c-1.2-0.1-2.4,0.3-3.3,0.9c-0.5,0.4-0.8,0.9-0.8,1.5c0,0.6,0.2,1.1,0.7,1.4
		c0.6,0.5,2.1,1,4.6,1.6c1.8,0.4,3.6,0.9,5.4,1.7c1.1,0.6,2,1.4,2.6,2.4c0.6,1.2,1,2.5,0.9,3.8c0,1.4-0.4,2.7-1.1,3.8
		c-0.8,1.2-1.9,2.1-3.2,2.6c-1.7,0.7-3.5,1-5.3,0.9c-3,0-5.5-0.7-7.1-2.1c-1.7-1.6-2.8-3.8-2.9-6.2l4.8-0.5c0.1,1.3,0.7,2.5,1.7,3.4
		c1,0.8,2.3,1.2,3.5,1.1c1.3,0.1,2.5-0.3,3.5-1c0.7-0.5,1.2-1.4,1.2-2.3c0-0.5-0.2-1-0.5-1.4c-0.5-0.5-1.1-0.8-1.7-1
		c-0.6-0.2-1.8-0.5-3.8-1c-2-0.3-3.9-1.1-5.6-2.3c-1.4-1.2-2.2-3.1-2.2-5c0-1.2,0.3-2.4,1-3.4c0.8-1,1.8-1.9,2.9-2.4
		c1.5-0.6,3.1-0.8,4.8-0.8c3,0,5.4,0.6,6.9,2c1.6,1.3,2.4,3.3,2.4,5.4l-5,0.2C168.7,7.1,168.3,6.1,167.5,5.5L167.5,5.5z"/>
</g>
</svg>
