<?xml version="1.0" encoding="utf-8"?>
<!-- Generator: Adobe Illustrator 21.1.0, SVG Export Plug-In . SVG Version: 6.00 Build 0)  -->
<svg version="1.1" id="Layer_1" xmlns="http://www.w3.org/2000/svg" xmlns:xlink="http://www.w3.org/1999/xlink" x="0px" y="0px"
	 viewBox="0 0 873 555" style="enable-background:new 0 0 873 555;" xml:space="preserve">
<style type="text/css">
	.st0{fill:none;stroke:#000000;stroke-width:2;stroke-miterlimit:10;}
	.st1{fill:none;stroke:#FFFFFF;stroke-width:2;stroke-miterlimit:10;}
	.st2{fill:none;stroke:#FFFFFF;stroke-width:2;}
	.st3{fill:none;stroke:#000000;stroke-width:2;}
	.st4{fill:#A8A69E;stroke:#FFFFFF;stroke-width:2;stroke-miterlimit:10;}
	.st5{fill:none;stroke:#FFFFFF;stroke-miterlimit:10;}
	.st6{fill:#FFFFFF;}
	.st7{fill:none;stroke:#E0FF03;stroke-width:3.5;stroke-miterlimit:10;}
	.st8{fill:none;stroke:#E0FF03;stroke-width:2;stroke-miterlimit:10;}
	.st9{fill:none;stroke:#E0FF03;stroke-width:4.5;stroke-miterlimit:10;}
	.st10{fill:none;stroke:#E0FF03;stroke-width:3;stroke-miterlimit:10;}
	.st11{fill:#E0FF03;stroke:#E0FF03;stroke-width:2;stroke-miterlimit:10;}
	.st12{fill:none;stroke:#FFFFFF;stroke-width:3;}
	.st13{fill:none;stroke:#E0FF03;stroke-width:3;}
	.st14{fill:none;stroke:#000000;stroke-width:3;stroke-miterlimit:10;}
	.st15{fill:none;stroke:#000000;stroke-width:2.0002;stroke-miterlimit:10.0008;}
	.st16{fill:none;stroke:#FFFFFF;stroke-width:3;stroke-miterlimit:10;}
	.st17{fill:none;stroke:#000000;stroke-width:3.5;stroke-miterlimit:10;}
	.st18{fill:#E0FF03;stroke:#000000;stroke-width:2;stroke-miterlimit:10;}
	.st19{fill:none;stroke:#E0FF03;stroke-width:2.9995;stroke-miterlimit:9.999;}
	.st20{stroke:#E1FF02;stroke-miterlimit:10;}
	.st21{fill:none;stroke:#000000;stroke-width:4.5;stroke-miterlimit:10;}
	.st22{fill:none;stroke:#000000;stroke-width:5;stroke-miterlimit:10;}
</style>
<path class="st0" d="M622.9,141.2c4.6,0,8.4-3.8,8.4-8.4c0-4.6-3.8-8.4-8.4-8.4c-4.6,0-8.4,3.8-8.4,8.4
	C614.5,137.4,618.3,141.2,622.9,141.2z"/>
<path class="st0" d="M637.9,133.4c0-0.1,0-0.3,0-0.4v-0.1v-0.1c-0.1-8.1-6.8-14.6-15-14.6c-8.2,0-14.9,6.5-15,14.4v0.1v0.1
	c0,0.1,0,0.3,0,0.4c0,0.3,0,0.6,0,0.9c0,0.1,0,0.1,0,0.3c1.2,14.1,15,24.2,15,24.2s13.8-10,15-24.2c0-0.1,0-0.1,0-0.3
	C637.9,133.9,637.9,133.7,637.9,133.4z"/>
<path class="st1" d="M695.9,141.2c4.6,0,8.4-3.8,8.4-8.4c0-4.6-3.8-8.4-8.4-8.4c-4.6,0-8.4,3.8-8.4,8.4
	C687.5,137.4,691.3,141.2,695.9,141.2z"/>
<path class="st1" d="M710.9,133.4c0-0.1,0-0.3,0-0.4v-0.1v-0.1c-0.1-8.1-6.8-14.6-15-14.6c-8.2,0-14.9,6.5-15,14.4v0.1v0.1
	c0,0.1,0,0.3,0,0.4c0,0.3,0,0.6,0,0.9c0,0.1,0,0.1,0,0.3c1.2,14.1,15,24.2,15,24.2s13.8-10,15-24.2c0-0.1,0-0.1,0-0.3
	C710.9,133.9,710.9,133.7,710.9,133.4z"/>
<path class="st1" d="M511.5,415l-12.9,13.1L485.5,415"/>
<path class="st0" d="M492,288.6l13.1,12.9L492,314.6"/>
<path class="st0" d="M171.7,301.6H239"/>
<path class="st0" d="M227,288.3l13.1,12.9L227,314.3"/>
<path class="st0" d="M90.3,281.1l40.6,40.6"/>
<path class="st0" d="M90.3,321.7l40.6-40.6"/>
<path class="st2" d="M41.5,39.7c4.5-0.1,8.3,3.4,8.4,8c0,0.1,0,0.2,0,0.3c0,4.9-3.7,9.8-8.4,9.8s-8.4-4.9-8.4-9.8
	c-0.1-4.5,3.5-8.2,8-8.3C41.3,39.7,41.4,39.7,41.5,39.7z"/>
<path class="st1" d="M57.1,79.7c0-10-3.8-17.4-12.2-18c-2.6-0.1-5.2,0-7.7,0.2c-6.4,1.6-9.9,8.8-9.9,17.8H57.1z"/>
<path class="st3" d="M112.5,39.8c4.5-0.1,8.3,3.4,8.4,8c0,0.1,0,0.2,0,0.3c0,4.9-3.7,9.8-8.4,9.8s-8.4-4.9-8.4-9.8
	c-0.1-4.5,3.5-8.2,8-8.3C112.3,39.8,112.4,39.8,112.5,39.8z"/>
<path class="st0" d="M128.1,79.8c0-10-3.8-17.4-12.2-18c-2.6-0.1-5.2,0-7.7,0.2c-6.4,1.6-9.9,8.8-9.9,17.8H128.1z"/>
<path class="st4" d="M183.7,39.6c4.5-0.1,8.3,3.4,8.4,8c0,0.1,0,0.2,0,0.3c0,4.9-3.7,9.8-8.4,9.8c-4.6,0-8.4-4.9-8.4-9.8
	c-0.1-4.5,3.5-8.2,8-8.3C183.5,39.6,183.6,39.6,183.7,39.6z"/>
<path class="st4" d="M199.3,79.6c0-10-3.8-17.4-12.2-18c-2.6-0.1-5.2,0-7.7,0.2c-6.4,1.6-9.9,8.8-9.9,17.8H199.3z"/>
<path class="st5" d="M260.3,39.8c11.1,0,20,9,20,20s-9,20-20,20c-11.1,0-20-9-20-20S249.3,39.8,260.3,39.8z"/>
<path class="st1" d="M260.3,39.8c11.1,0,20,9,20,20s-9,20-20,20c-11,0-20-9-20-20S249.3,39.8,260.3,39.8z"/>
<path class="st6" d="M252,66.5l2.2-0.7v-5H252V58h2.2v-2.6c0-2.1,0.6-3.8,1.7-4.9c1.1-1.1,2.7-1.7,4.7-1.7c3.1,0,4.9,1.4,6.2,3.2
	l-2.6,2.1c-1-1.3-2-2.1-3.5-2.1c-0.9,0-1.5,0.3-2.1,0.8c-0.6,0.6-0.9,1.5-0.9,2.7V58h7v2.9h-7v4.8h9.1v3H252V66.5z"/>
<path class="st1" d="M344.1,82.2c11,0,20-9,20-20c0-11-9-20-20-20c-11,0-20,9-20,20C324.1,73.2,333.1,82.2,344.1,82.2z"/>
<path class="st6" d="M349.3,56.7c-1.2-0.9-2.5-1.5-3.8-1.8v5.4c4.3,1.1,6.1,2.8,6.1,5.8V66c0,3.1-2.4,5.1-6,5.5v2.8h-2.4v-2.8
	c-2.4-0.3-4.7-1.3-6.6-2.8l1.8-2.6c1.6,1.3,3.1,2.2,4.9,2.5V63c-4.1-1.1-6-2.6-6-5.8v-0.1c0-3,2.4-5.1,5.9-5.4v-1.6h2.4v1.7
	c2,0.3,3.7,1,5.3,2.1L349.3,56.7z M343.3,59.6v-5c-1.8,0.2-2.7,1.1-2.7,2.3C340.6,58.2,341.1,59,343.3,59.6z M345.5,63.5v5.1
	c1.8-0.2,2.8-1.1,2.8-2.4v-0.1C348.3,65,347.7,64.2,345.5,63.5z"/>
<path class="st1" d="M425.1,82.4c11,0,20-9,20-20s-9-20-20-20c-11,0-20,9-20,20S414.1,82.4,425.1,82.4z"/>
<path class="st6" d="M431.2,57.7c-1.2-1.7-2.4-2.6-4.3-2.6c-2,0-3.5,1.3-4.3,3.4h6v2.4H422c-0.1,0.4-0.1,0.8-0.1,1.2
	c0,0.4,0,0.8,0,1.1h6.6v2.4h-6.1c0.8,2.2,2.4,3.6,4.6,3.6c1.9,0,3-1,4.3-2.7l2.5,1.8c-1.6,2.3-3.6,4-6.8,4c-4.2,0-7.1-2.7-8.2-6.7
	h-2.6v-2.4h2.2c0-0.3,0-0.7,0-1.1c0-0.4,0-0.9,0.1-1.3h-2.2v-2.4h2.6c1.1-3.8,4-6.5,8-6.5c3.4,0,5.4,1.6,6.9,3.7L431.2,57.7z"/>
<path class="st1" d="M506.9,41.6c11,0,20,9,20,20s-9,20-20,20s-20-9-20-20S495.8,41.6,506.9,41.6z"/>
<path class="st0" d="M506.8,41.6c11,0,20,9,20,20s-9,20-20,20s-20-9-20-20S495.8,41.6,506.8,41.6z"/>
<path d="M498.6,68.3l2.2-0.7v-4.9h-2.2v-2.9h2.2v-2.6c0-2.1,0.6-3.8,1.7-4.9c1.1-1.1,2.7-1.7,4.7-1.7c3.1,0,4.9,1.4,6.2,3.1
	l-2.6,2.1c-1-1.3-2-2.1-3.5-2.1c-0.9,0-1.5,0.3-2.1,0.8c-0.6,0.6-0.9,1.5-0.9,2.7v2.5h7v2.9h-7v4.8h9.1v3h-14.9L498.6,68.3z"/>
<path class="st0" d="M587.5,82.6c11,0,20-9,20-20s-9-20-20-20s-20,9-20,20S576.5,82.6,587.5,82.6z"/>
<path d="M592.8,57c-1.2-0.9-2.5-1.5-3.8-1.8v5.4c4.3,1.1,6.1,2.8,6.1,5.8v0.1c0,3.1-2.4,5.1-6,5.5v2.8h-2.4V72
	c-2.4-0.3-4.7-1.3-6.6-2.8l1.8-2.6c1.6,1.3,3.1,2.2,4.9,2.5v-5.5c-4.1-1.1-6-2.6-6-5.8v-0.1c0-3,2.4-5.1,5.9-5.4v-1.6h2.4v1.7
	c2,0.3,3.7,1,5.3,2.1L592.8,57z M586.7,60v-5c-1.8,0.2-2.7,1.1-2.7,2.3C584,58.6,584.6,59.4,586.7,60z M588.9,63.9V69
	c1.8-0.2,2.8-1.1,2.8-2.4v-0.1C591.7,65.3,591.1,64.6,588.9,63.9z"/>
<path class="st0" d="M668.5,82.8c11,0,20-9,20-20c0-11-9-20-20-20s-20,9-20,20C648.5,73.8,657.5,82.8,668.5,82.8z"/>
<path d="M674.6,58c-1.2-1.7-2.4-2.6-4.3-2.6c-2,0-3.5,1.3-4.3,3.4h6v2.4h-6.6c-0.1,0.4-0.1,0.8-0.1,1.2c0,0.4,0,0.8,0,1.1h6.6v2.4
	h-6.1c0.8,2.2,2.4,3.6,4.6,3.6c1.9,0,3-1,4.3-2.7l2.5,1.8c-1.6,2.3-3.6,4-6.8,4c-4.2,0-7.1-2.7-8.2-6.7h-2.6v-2.4h2.2
	c0-0.3,0-0.7,0-1.1c0-0.4,0-0.9,0.1-1.3h-2.2v-2.4h2.6c1.1-3.8,4-6.5,8-6.5c3.4,0,5.4,1.6,6.9,3.7L674.6,58z"/>
<path class="st7" d="M753,67.7l13.6,14.4"/>
<path class="st8" d="M743,69.9c7.5,0,13.5-6,13.5-13.5s-6-13.5-13.5-13.5s-13.5,6-13.5,13.5S735.5,69.9,743,69.9z"/>
<path class="st9" d="M831.6,68.5l13.6,14.3"/>
<path class="st10" d="M820.9,69.9c7.5,0,13.5-6,13.5-13.5s-6-13.5-13.5-13.5c-7.5,0-13.5,6-13.5,13.5S813.4,69.9,820.9,69.9z"/>
<path class="st8" d="M127.2,131.6c0,0,0.1-9.7-8.3-9.7s-8.7,9.9-8.7,9.9"/>
<path class="st1" d="M59.8,131.1c2.4,26.9,2.4,27.6,2.4,27.6s-1.5,0-9.4,0s-24,0-24,0H27l2.6-27.4L59.8,131.1z"/>
<path class="st11" d="M134.1,131.8c2.4,26.9,2.4,27.6,2.4,27.6s-1.5,0-9.4,0c-7.9,0-24,0-24,0h-1.8l2.6-27.4L134.1,131.8z"/>
<path class="st1" d="M53.1,131.2c0,0,0.1-9.7-8.3-9.7s-8.7,9.9-8.7,9.9"/>
<path class="st12" d="M180.3,135.4h38"/>
<path class="st13" d="M180.3,145.5h38"/>
<path class="st12" d="M180.3,155.6h38"/>
<path class="st14" d="M637,239.3c11,0,20-9,20-20c0-11-9-20-20-20s-20,9-20,20C617,230.3,626,239.3,637,239.3z"/>
<path d="M637,229.9c-2.8,0-3.2,0-4.4-0.1c-0.9,0-1.7-0.2-2.6-0.5c-0.7-0.3-1.3-0.7-1.9-1.2c-0.5-0.5-1-1.2-1.2-1.9
	c-0.3-0.8-0.5-1.7-0.5-2.6c-0.1-1.1-0.1-1.5-0.1-4.4c0-2.9,0-3.2,0.1-4.4c0-0.9,0.2-1.7,0.5-2.6c0.3-0.7,0.7-1.3,1.2-1.9
	c0.5-0.5,1.2-1,1.9-1.2c0.8-0.3,1.7-0.5,2.6-0.5c1.1-0.1,1.5-0.1,4.4-0.1c2.8,0,3.2,0,4.4,0.1c0.9,0,1.8,0.2,2.6,0.5
	c0.7,0.3,1.3,0.7,1.9,1.2c0.5,0.5,1,1.2,1.2,1.9c0.3,0.8,0.5,1.7,0.5,2.6c0.1,1.1,0.1,1.5,0.1,4.4c0,2.8,0,3.2-0.1,4.4
	c0,0.9-0.2,1.7-0.5,2.6c-0.5,1.4-1.7,2.5-3.1,3.1c-0.8,0.3-1.7,0.5-2.6,0.5C640.2,229.9,639.8,229.9,637,229.9z M637,213.9
	c-3,0-5.4,2.4-5.4,5.4s2.4,5.4,5.4,5.4s5.4-2.4,5.4-5.4S640,213.9,637,213.9z M642.6,212.4c-0.7,0-1.3,0.6-1.3,1.3s0.6,1.3,1.3,1.3
	c0.7,0,1.3-0.6,1.3-1.3C643.9,212.9,643.3,212.4,642.6,212.4z M637,222.8c-1.9,0-3.5-1.6-3.5-3.5c0-1.9,1.6-3.5,3.5-3.5
	s3.5,1.6,3.5,3.5C640.5,221.3,638.9,222.8,637,222.8z"/>
<path d="M658,232.2h1.6l2,6.1l2-6.1h1.2l2,6.1l2-6.1h1.5l-2.9,8.3h-1.3l-2-5.9l-2,5.9h-1.2L658,232.2z"/>
<path class="st14" d="M547.7,239.6c11,0,20-9,20-20c0-11-9-20-20-20c-11,0-20,9-20,20C527.7,230.6,536.7,239.6,547.7,239.6z"/>
<path d="M547.7,230.2c-2.8,0-3.2,0-4.4-0.1c-0.9,0-1.7-0.2-2.6-0.5c-0.7-0.3-1.3-0.7-1.9-1.2c-0.5-0.5-1-1.2-1.2-1.9
	c-0.3-0.8-0.5-1.7-0.5-2.6c-0.1-1.1-0.1-1.5-0.1-4.4s0-3.2,0.1-4.4c0-0.9,0.2-1.7,0.5-2.6c0.3-0.7,0.7-1.3,1.2-1.9
	c0.5-0.5,1.2-1,1.9-1.2c0.8-0.3,1.7-0.5,2.6-0.5c1.1-0.1,1.5-0.1,4.4-0.1c2.8,0,3.2,0,4.4,0.1c0.9,0,1.8,0.2,2.6,0.5
	c0.7,0.3,1.3,0.7,1.9,1.2c0.5,0.5,1,1.2,1.2,1.9c0.3,0.8,0.5,1.7,0.5,2.6c0.1,1.1,0.1,1.5,0.1,4.4c0,2.8,0,3.2-0.1,4.4
	c0,0.9-0.2,1.7-0.5,2.6c-0.5,1.4-1.7,2.5-3.1,3.1c-0.8,0.3-1.7,0.5-2.6,0.5C550.9,230.2,550.6,230.2,547.7,230.2z M547.7,214.2
	c-3,0-5.4,2.4-5.4,5.4s2.4,5.4,5.4,5.4s5.4-2.4,5.4-5.4C553.2,216.6,550.7,214.2,547.7,214.2z M553.3,212.6c-0.7,0-1.3,0.6-1.3,1.3
	c0,0.7,0.6,1.3,1.3,1.3s1.3-0.6,1.3-1.3C554.6,213.2,554,212.6,553.3,212.6z M547.7,223.1c-1.9,0-3.5-1.6-3.5-3.5
	c0-1.9,1.6-3.5,3.5-3.5c1.9,0,3.5,1.6,3.5,3.5C551.3,221.5,549.7,223.1,547.7,223.1z"/>
<path d="M568.4,231.9h1.5l2.5,3.9l2.5-3.9h1.5v8.2H575v-5.9l-2.6,3.9l-2.6-3.9v5.9h-1.4V231.9z"/>
<path class="st14" d="M465.3,239.8c11,0,20-9,20-20c0-11-9-20-20-20c-11,0-20,9-20,20C445.3,230.8,454.3,239.8,465.3,239.8z"/>
<path d="M473.3,213.4c0.9-0.6,1.6-1.5,2-2.6c-0.9,0.5-1.8,0.9-2.8,1.1c-0.8-0.9-2-1.5-3.3-1.5c-2.5,0.1-4.5,2.2-4.5,4.7
	c0,0.4,0,0.7,0.1,1.1c-3.6-0.2-7-2-9.2-4.9c-0.4,0.7-0.6,1.5-0.6,2.4c0,1.6,0.7,3,2,3.9c-0.7,0-1.4-0.2-2-0.6v0.1
	c0,2.2,1.4,4.1,3.6,4.6c-0.4,0.1-0.8,0.2-1.2,0.2c-0.3,0-0.6,0-0.8-0.1c0.5,1.9,2.2,3.2,4.2,3.3c-1.6,1.3-3.5,2-5.5,2
	c-0.4,0-0.7,0-1.1-0.1c2,1.4,4.4,2.1,6.8,2.1c8.2,0,12.7-7.2,12.7-13.4c0-0.2,0-0.4,0-0.6c0.9-0.7,1.6-1.5,2.2-2.4
	C475.1,213.1,474.2,213.3,473.3,213.4z"/>
<path class="st14" d="M381.3,239.8c11,0,20-9,20-20c0-11-9-20-20-20c-11,0-20,9-20,20C361.3,230.8,370.3,239.8,381.3,239.8z"/>
<path d="M382.9,231.2h-5v-11.9h-2.5v-4.1h2.5v-2.5c0-3.3,1.4-5.3,5.5-5.3h3.4v4.1h-2.1c-1.6,0-1.7,0.6-1.7,1.6v2h3.8l-0.4,4.1H383
	L382.9,231.2z"/>
<path class="st14" d="M115.6,446.7c11,0,20-9,20-20c0-11-9-20-20-20c-11,0-20,9-20,20C95.6,437.7,104.6,446.7,115.6,446.7z"/>
<path class="st14" d="M115.6,509.2c11,0,20-9,20-20c0-11-9-20-20-20c-11,0-20,9-20,20C95.6,500.2,104.6,509.2,115.6,509.2z"/>
<path class="st14" d="M39.8,508.2c11,0,20-9,20-20c0-11-9-20-20-20s-20,9-20,20C19.8,499.2,28.8,508.2,39.8,508.2z"/>
<path class="st0" d="M287.6,239.8c11,0,20-9,20-20c0-11-9-20-20-20c-11,0-20,9-20,20C267.6,230.8,276.6,239.8,287.6,239.8z"/>
<path d="M287.6,230.4c-2.8,0-3.2,0-4.4-0.1c-0.9,0-1.7-0.2-2.6-0.5c-0.7-0.3-1.3-0.7-1.9-1.2c-0.5-0.5-1-1.2-1.2-1.9
	c-0.3-0.8-0.5-1.7-0.5-2.6c-0.1-1.1-0.1-1.5-0.1-4.4c0-2.9,0-3.2,0.1-4.4c0-0.9,0.2-1.7,0.5-2.6c0.3-0.7,0.7-1.3,1.2-1.9
	c0.5-0.5,1.2-1,1.9-1.2c0.8-0.3,1.7-0.5,2.6-0.5c1.1-0.1,1.5-0.1,4.4-0.1c2.8,0,3.2,0,4.4,0.1c0.9,0,1.8,0.2,2.6,0.5
	c0.7,0.3,1.3,0.7,1.9,1.2c0.5,0.5,1,1.2,1.2,1.9c0.3,0.8,0.5,1.7,0.5,2.6c0.1,1.1,0.1,1.5,0.1,4.4c0,2.8,0,3.2-0.1,4.4
	c0,0.9-0.2,1.7-0.5,2.6c-0.5,1.4-1.7,2.5-3.1,3.1c-0.8,0.3-1.7,0.5-2.6,0.5C290.8,230.4,290.4,230.4,287.6,230.4z M287.6,214.4
	c-3,0-5.4,2.4-5.4,5.4s2.4,5.4,5.4,5.4s5.4-2.4,5.4-5.4C293,216.9,290.6,214.4,287.6,214.4z M293.2,212.9c-0.7,0-1.3,0.6-1.3,1.3
	s0.6,1.3,1.3,1.3c0.7,0,1.3-0.6,1.3-1.3S293.9,212.9,293.2,212.9z M287.6,223.4c-1.9,0-3.5-1.6-3.5-3.5c0-1.9,1.6-3.5,3.5-3.5
	s3.5,1.6,3.5,3.5C291.1,221.8,289.6,223.4,287.6,223.4z"/>
<path d="M308.6,232.7h1.6l2,6.1l2-6.1h1.2l2,6.1l2-6.1h1.5L318,241h-1.3l-2-5.9l-2,5.9h-1.2L308.6,232.7z"/>
<path class="st0" d="M198.2,239.8c11,0,20-9,20-20c0-11-9-20-20-20c-11,0-20,9-20,20C178.2,230.8,187.2,239.8,198.2,239.8z"/>
<path d="M198.2,230.4c-2.8,0-3.2,0-4.4-0.1c-0.9,0-1.7-0.2-2.6-0.5c-0.7-0.3-1.3-0.7-1.9-1.2c-0.5-0.5-1-1.2-1.2-1.9
	c-0.3-0.8-0.5-1.7-0.5-2.6c-0.1-1.1-0.1-1.5-0.1-4.4c0-2.9,0-3.2,0.1-4.4c0-0.9,0.2-1.7,0.5-2.6c0.3-0.7,0.7-1.3,1.2-1.9
	c0.5-0.5,1.2-1,1.9-1.2c0.8-0.3,1.7-0.5,2.6-0.5c1.1-0.1,1.5-0.1,4.4-0.1c2.8,0,3.2,0,4.4,0.1c0.9,0,1.8,0.2,2.6,0.5
	c0.7,0.3,1.3,0.7,1.9,1.2c0.5,0.5,1,1.2,1.2,1.9c0.3,0.8,0.5,1.7,0.5,2.6c0.1,1.1,0.1,1.5,0.1,4.4c0,2.8,0,3.2-0.1,4.4
	c0,0.9-0.2,1.7-0.5,2.6c-0.5,1.4-1.7,2.5-3.1,3.1c-0.8,0.3-1.7,0.5-2.6,0.5C201.4,230.4,201,230.4,198.2,230.4z M198.2,214.4
	c-3,0-5.4,2.4-5.4,5.4s2.4,5.4,5.4,5.4s5.4-2.4,5.4-5.4C203.6,216.9,201.2,214.4,198.2,214.4z M203.8,212.9c-0.7,0-1.3,0.6-1.3,1.3
	s0.6,1.3,1.3,1.3s1.3-0.6,1.3-1.3S204.5,212.9,203.8,212.9z M198.2,223.4c-1.9,0-3.5-1.6-3.5-3.5c0-1.9,1.6-3.5,3.5-3.5
	c1.9,0,3.5,1.6,3.5,3.5C201.7,221.8,200.1,223.4,198.2,223.4z"/>
<path d="M218.8,232.2h1.5l2.5,3.9l2.5-3.9h1.5v8.2h-1.4v-5.9l-2.6,3.9l-2.6-3.9v5.9h-1.4V232.2z"/>
<path class="st15" d="M123.8,238.3c10.2-4.2,15.1-15.8,11-26.1c-4.2-10.2-15.8-15.1-26.1-11c-10.2,4.2-15.1,15.8-11,26.1
	C101.9,237.6,113.5,242.5,123.8,238.3z"/>
<path d="M124.2,213.4c0.9-0.6,1.6-1.5,2-2.6c-0.9,0.5-1.8,0.9-2.8,1.1c-0.8-0.9-2-1.5-3.3-1.5c-2.5,0.1-4.5,2.2-4.5,4.7
	c0,0.4,0,0.7,0.1,1.1c-3.6-0.2-7-2-9.2-4.9c-0.4,0.7-0.6,1.5-0.6,2.4c0,1.6,0.7,3,2,3.9c-0.7,0-1.4-0.2-2-0.6v0.1
	c0,2.2,1.4,4.1,3.6,4.6c-0.4,0.1-0.8,0.2-1.2,0.2c-0.3,0-0.6,0-0.8-0.1c0.5,1.9,2.2,3.2,4.2,3.3c-1.6,1.3-3.5,2-5.5,2
	c-0.4,0-0.7,0-1.1-0.1c2,1.4,4.4,2.1,6.8,2.1c8.2,0,12.7-7.2,12.7-13.4c0-0.2,0-0.4,0-0.6c0.9-0.7,1.6-1.5,2.2-2.4
	C126,213.1,125.1,213.3,124.2,213.4z"/>
<path class="st0" d="M42.2,239.8c11,0,20-9,20-20c0-11-9-20-20-20s-20,9-20,20C22.2,230.8,31.2,239.8,42.2,239.8z"/>
<path d="M43.9,231.2h-5v-11.9h-2.5v-4.1h2.5v-2.5c0-3.3,1.4-5.3,5.5-5.3h3.4v4.1h-2.1c-1.6,0-1.7,0.6-1.7,1.6v2h3.8l-0.4,4.1H44
	L43.9,231.2z"/>
<path class="st0" d="M303.6,121.8c-5.1-5.8-16.6-3.8-19.3,4.8c-2.6-10.2-14.2-10.5-19.3-4.8c-4.7,5.3-3.5,12.9,0.9,18.5
	c5.7,6.5,11.8,12.6,18.3,18.3h0.1c6.6-5.6,12.7-11.7,18.3-18.3C307,134.6,308.3,127.1,303.6,121.8z"/>
<path class="st14" d="M388.2,121.8c-5.1-5.8-16.6-3.8-19.3,4.8c-2.6-10.2-14.2-10.5-19.3-4.8c-4.7,5.3-3.5,12.9,0.9,18.5
	c5.7,6.5,11.8,12.6,18.3,18.3h0.1c6.6-5.6,12.7-11.7,18.3-18.3C391.6,134.6,392.9,127.1,388.2,121.8z"/>
<path d="M41.8,281.4l-8.4,8.4h6.3v31.6h4.2v-31.6h6.3L41.8,281.4z"/>
<path class="st1" d="M476.5,121.8c-5.1-5.8-16.6-3.8-19.3,4.8c-2.6-10.2-14.2-10.5-19.3-4.8c-4.7,5.3-3.5,12.9,0.9,18.5
	c5.7,6.5,11.8,12.6,18.3,18.3h0.1c5-4.2,7.4-5.4,18.3-18.3C479.8,134.6,481.2,127.1,476.5,121.8z"/>
<path class="st16" d="M562.1,121.8c-5.1-5.8-16.6-3.8-19.3,4.8c-2.6-10.2-14.2-10.5-19.3-4.8c-4.7,5.3-3.5,12.9,0.9,18.5
	c5.7,6.5,11.8,12.6,18.3,18.3h0.1c6.6-5.6,12.7-11.7,18.3-18.3C565.4,134.6,566.8,127.1,562.1,121.8z"/>
<path class="st14" d="M298.6,291.3l20,20"/>
<path class="st14" d="M298.6,311.3l20-20"/>
<path class="st17" d="M830.9,150.8l13.6,14.4"/>
<path class="st0" d="M820.9,153c7.5,0,13.5-6,13.5-13.5s-6-13.5-13.5-13.5c-7.5,0-13.5,6-13.5,13.5S813.4,153,820.9,153z"/>
<path class="st18" d="M424.4,285.1c-5.1-5.8-16.6-3.8-19.3,4.8c-2.6-10.2-14.2-10.5-19.3-4.8c-4.7,5.3-3.5,12.9,0.9,18.5
	c5.7,6.5,11.8,12.6,18.3,18.3h0.1c6.6-5.6,12.7-11.7,18.3-18.3C427.8,297.9,429.1,290.4,424.4,285.1z"/>
<path class="st19" d="M786.5,308.7c13-7.5,21.1-17.9,18-23.2c-3.1-5.3-16.1-3.5-29.1,4c-13,7.5-21.1,17.9-18,23.2
	S773.5,316.2,786.5,308.7z"/>
<path class="st6" d="M783.3,339.1l8.4-8.4h-6.3v-31.6h-4.2v31.6h-6.3L783.3,339.1z"/>
<path class="st20" d="M612.6,301.6l-11-11v8.3h-41.5v5.5h41.5v8.3L612.6,301.6z"/>
<path d="M563.7,386.2v-1h-1v1H563.7z M563.7,386.2v1h2.6l-1.9-1.7L563.7,386.2z M562.9,384.6h1v0l0,0L562.9,384.6z M560,349.4v-1
	h-1.1l0.1,1.1L560,349.4z M576,349.4l1,0.1l0.1-1.1H576V349.4z M573.1,384.6l-1-0.1l0,0v0H573.1z M572.3,386.2l-0.7-0.7l-1.9,1.7
	h2.6V386.2z M572.3,386.2h1v-1h-1V386.2z M560,349.4h-1v1h1V349.4z M560,345v-1h-1v1H560z M576,345h1v-1h-1V345z M576,349.4v1h1v-1
	H576z M565.3,391c0,0-0.1,0-0.3-0.3c-0.2-0.3-0.4-0.9-0.4-1.6h-2c0,0.9,0.2,1.8,0.6,2.6c0.4,0.7,1.1,1.4,2,1.4V391z M564.7,389.1
	v-2.9h-2v2.9H564.7z M563.7,387.2L563.7,387.2l0-2h0V387.2z M564.4,385.5c-0.3-0.3-0.5-0.6-0.5-0.9h-2c0,1,0.5,1.8,1.1,2.4
	L564.4,385.5z M563.9,384.5l-2.9-35.2l-2,0.2l2.9,35.2L563.9,384.5z M560,350.4h16v-2h-16V350.4z M575,349.3l-2.9,35.2l2,0.2
	l2.9-35.2L575,349.3z M572.1,384.6c0,0.3-0.2,0.6-0.5,0.9l1.3,1.5c0.6-0.5,1.1-1.4,1.1-2.4H572.1z M572.3,387.2L572.3,387.2l0-2h0
	V387.2z M571.3,386.2v2.9h2v-2.9H571.3z M571.3,389.1c0,0.7-0.2,1.2-0.4,1.6c-0.2,0.4-0.4,0.3-0.3,0.3v2c1,0,1.7-0.7,2-1.4
	c0.4-0.7,0.6-1.6,0.6-2.6H571.3z M570.7,391h-5.3v2h5.3V391z M561,349.4V345h-2v4.4H561z M560,346h16v-2h-16V346z M575,345v4.4h2
	V345H575z M576,348.4h-16v2h16V348.4z"/>
<path class="st3" d="M621.4,378.3V361H620v-10.7h38V361h-1.4v17.3H621.4z"/>
<path d="M642.4,349.6v1h0.3l0.3-0.2L642.4,349.6z M639.7,349.6l-0.9,0.5l0.3,0.5h0.6V349.6z M639,348.1l-0.9-0.4l-0.2,0.4l0.2,0.4
	L639,348.1z M645.1,342.9l0.6-0.8l0,0L645.1,342.9z M646,344.8l-1,0l0,0L646,344.8z M642.4,349.6l-0.6-0.8l0,0L642.4,349.6z
	 M638.3,349.6v1h0.7l0.2-0.6L638.3,349.6z M635.6,349.6l-0.6,0.8l0.3,0.2h0.3V349.6z M632,344.8l-1,0l0,0L632,344.8z M632.9,342.9
	l-0.6-0.8l0,0L632.9,342.9z M639,348.1l0.9,0.4l0.2-0.4l-0.2-0.4L639,348.1z M638.3,349.6l0.9,0.4l0,0L638.3,349.6z M642.4,348.6
	L642.4,348.6l0,2h0V348.6z M642.4,348.6h-2.7v2h2.7V348.6z M640.6,349.2C640.6,349.2,640.6,349.2,640.6,349.2
	C640.6,349.2,640.6,349.2,640.6,349.2C640.6,349.2,640.6,349.3,640.6,349.2c0,0.1,0,0.1,0,0.1c0,0,0,0,0,0
	C640.6,349.3,640.6,349.2,640.6,349.2C640.6,349.2,640.6,349.2,640.6,349.2c0-0.1-0.1-0.2-0.1-0.3c-0.1-0.3-0.3-0.7-0.5-1.1
	l-1.8,0.9c0.2,0.4,0.4,0.8,0.5,1.1c0.1,0.1,0.1,0.2,0.1,0.3c0,0,0,0.1,0,0.1c0,0,0,0,0,0c0,0,0,0,0,0c0,0,0,0,0,0c0,0,0,0,0,0
	c0,0,0,0,0,0c0,0,0,0,0,0.1L640.6,349.2z M639.9,348.5c0.5-1,1.2-2.4,2-3.5c0.4-0.5,0.8-1,1.2-1.3c0.4-0.3,0.7-0.4,0.8-0.4v-2
	c-0.8,0-1.5,0.4-2.1,0.8c-0.6,0.4-1.1,1-1.6,1.6c-0.9,1.2-1.7,2.7-2.2,3.8L639.9,348.5z M643.9,343.4c0.1,0,0.3,0,0.5,0.2l1.3-1.5
	c-0.5-0.4-1.1-0.7-1.8-0.7V343.4z M644.4,343.6c0.4,0.4,0.6,0.7,0.6,1.1l2,0.1c0-1.1-0.4-2-1.3-2.7L644.4,343.6z M645,344.8
	c0,0.3-0.2,0.8-0.5,1.2c-0.3,0.5-0.7,0.9-1.1,1.4c-0.8,0.9-1.7,1.5-1.6,1.4l1.2,1.6c0,0,1-0.7,1.9-1.7c0.5-0.5,1-1.1,1.4-1.7
	c0.4-0.6,0.7-1.4,0.7-2.2L645,344.8z M641.8,348.8L641.8,348.8l1.2,1.6v0L641.8,348.8z M638.3,348.6L638.3,348.6l0,2h0V348.6z
	 M638.3,348.6h-2.7v2h2.7V348.6z M636.2,348.8c0,0-0.9-0.6-1.7-1.5c-0.4-0.4-0.8-0.9-1.1-1.4c-0.3-0.5-0.4-0.9-0.4-1.2l-2,0.1
	c0,0.8,0.3,1.5,0.7,2.2c0.4,0.6,0.9,1.2,1.3,1.7c0.9,1,1.9,1.7,2,1.7L636.2,348.8z M633,344.8c0-0.4,0.1-0.7,0.6-1.1l-1.3-1.5
	c-0.8,0.7-1.3,1.6-1.3,2.7L633,344.8z M633.6,343.6c0.2-0.2,0.4-0.2,0.5-0.2v-2c-0.7,0-1.3,0.3-1.8,0.7L633.6,343.6z M634.1,343.4
	c0.2,0,0.5,0.1,0.8,0.4c0.4,0.3,0.8,0.7,1.2,1.3c0.8,1.1,1.5,2.4,2,3.5l1.8-0.9c-0.5-1.1-1.3-2.6-2.2-3.8c-0.5-0.6-1-1.2-1.6-1.6
	c-0.6-0.4-1.3-0.8-2.1-0.8V343.4z M638.1,347.7c-0.4,0.9-0.7,1.6-0.7,1.6l1.9,0.7c0,0,0.2-0.6,0.6-1.5L638.1,347.7z M637.4,349.3
	L637.4,349.3l1.9,0.7v0L637.4,349.3z"/>
<line class="st3" x1="636" y1="361" x2="620" y2="361"/>
<line class="st3" x1="658" y1="361" x2="642" y2="361"/>
<line class="st3" x1="635" y1="350" x2="635" y2="378"/>
<line class="st3" x1="643" y1="350" x2="643" y2="378"/>
<path class="st20" d="M658,301.6l11.2,10.9l-0.1-8.2l41.5-0.5l-0.1-5.5l-41.5,0.4l-0.1-8.2L658,301.6z"/>
<path class="st0" d="M505.2,374l-13.1-12.9l13.1-13.1"/>
<path class="st0" d="M239.5,362.7h-67.3"/>
<path class="st0" d="M184.2,376l-13.1-12.9l13.1-13.1"/>
<path class="st21" d="M831.9,224.8l13.6,14.4"/>
<path class="st14" d="M820.9,227c7.5,0,13.5-6,13.5-13.5s-6-13.5-13.5-13.5c-7.5,0-13.5,6-13.5,13.5S813.4,227,820.9,227z"/>
<path class="st19" d="M744.4,221.6c13-7.5,21.1-17.9,18-23.2c-3.1-5.3-16.1-3.5-29.1,4c-13,7.5-21.1,17.9-18,23.2
	C718.3,230.9,731.4,229.1,744.4,221.6z"/>
<path d="M741.2,252.1l8.4-8.4h-6.3v-31.6h-4.2v31.6h-6.3L741.2,252.1z"/>
<path class="st22" d="M284.7,363.3H352"/>
<path class="st22" d="M340,350l13.1,12.9L340,376"/>
<path class="st22" d="M352.5,424.4h-67.3"/>
<path class="st22" d="M297.2,437.7l-13.1-12.9l13.1-13.1"/>
<path class="st0" d="M41.6,384.5c11,0,20-9,20-20s-9-20-20-20s-20,9-20,20S30.6,384.5,41.6,384.5z"/>
<path d="M41.6,375.2c-1.5,0-2.9,0-4.4-0.1c-0.9,0-1.8-0.2-2.6-0.5c-0.7-0.3-1.3-0.7-1.9-1.2c-0.5-0.5-1-1.2-1.2-1.9
	c-0.3-0.8-0.5-1.7-0.5-2.6c-0.1-1.5-0.1-2.9-0.1-4.4s0-2.9,0.1-4.4c0-0.9,0.2-1.8,0.5-2.6c0.3-0.7,0.7-1.3,1.2-1.9
	c0.5-0.5,1.2-1,1.9-1.2c0.8-0.3,1.7-0.5,2.6-0.5c1.5-0.1,2.9-0.1,4.4-0.1s2.9,0,4.4,0.1c0.9,0,1.8,0.2,2.6,0.5
	c0.7,0.3,1.3,0.7,1.9,1.2c0.5,0.5,1,1.2,1.2,1.9c0.3,0.8,0.5,1.7,0.5,2.6c0.1,1.5,0.1,2.9,0.1,4.4s0,2.9-0.1,4.4
	c0,0.9-0.2,1.8-0.5,2.6c-0.6,1.4-1.7,2.5-3.1,3.1c-0.8,0.3-1.7,0.5-2.6,0.5C44.6,375.2,43.1,375.2,41.6,375.2z M41.6,359.2
	c-3,0-5.4,2.4-5.4,5.4s2.4,5.4,5.4,5.4s5.4-2.4,5.4-5.4S44.6,359.2,41.6,359.2z M47.2,357.8c-0.7,0-1.3,0.6-1.3,1.3
	c0,0.7,0.6,1.3,1.3,1.3c0.7,0,1.3-0.6,1.3-1.3C48.5,358.3,48,357.8,47.2,357.8z M41.6,368.2c-1.9,0-3.5-1.6-3.5-3.5
	c0-1.9,1.6-3.5,3.5-3.5c1.9,0,3.5,1.6,3.5,3.5C45.1,366.6,43.6,368.2,41.6,368.2z"/>
<path class="st0" d="M115.6,384.8c11,0,20-9,20-20c0-11-9-20-20-20c-11,0-20,9-20,20C95.6,375.8,104.6,384.8,115.6,384.8z"/>
<path class="st0" d="M41.1,446.9c11,0,20-9,20-20c0-11-9-20-20-20s-20,9-20,20C21.1,437.9,30.1,446.9,41.1,446.9z"/>
<path d="M124.5,362.8H124c-1.9,0-3.6-0.9-4.6-2.5v8.5c0,3.5-2.8,6.3-6.3,6.3s-6.3-2.8-6.3-6.3s2.8-6.3,6.3-6.3h0.4v3.1h-0.4
	c-1.8,0-3.2,1.4-3.2,3.2c0,1.8,1.4,3.2,3.2,3.2c1.8,0,3.3-1.4,3.3-3.2v-14.5h3c0.3,2.7,2.4,4.7,5.1,5V362.8z"/>
<path d="M39.4,430.9c-0.7,3.4-1.5,6.8-3.8,8.5c-0.7-5.2,1.1-9.1,1.9-13.3c-1.4-2.4,0.2-7.3,3.2-6.1c3.7,1.5-3.2,9,1.4,9.9
	c4.9,1,6.9-8.5,3.8-11.5c-4.4-4.4-12.7-0.1-11.7,6.2c0.2,1.6,1.9,2,0.6,4.2c-2.8-0.6-3.6-2.8-3.5-5.8c0.2-4.8,4.3-8.2,8.5-8.6
	c5.3-0.6,10.2,1.9,10.9,6.9c0.8,5.6-2.4,11.6-8,11.2C41.3,432.4,40.6,431.6,39.4,430.9z"/>
<path d="M115.6,437.4c-1.5,0-2.9,0-4.4-0.1c-0.9,0-1.8-0.2-2.6-0.5c-0.7-0.3-1.3-0.7-1.9-1.2c-0.5-0.5-1-1.2-1.2-1.9
	c-0.3-0.8-0.5-1.7-0.5-2.6c-0.1-1.5-0.1-2.9-0.1-4.4s0-2.9,0.1-4.4c0-0.9,0.2-1.8,0.5-2.6c0.3-0.7,0.7-1.3,1.2-1.9
	c0.5-0.5,1.2-1,1.9-1.2c0.8-0.3,1.7-0.5,2.6-0.5c1.5-0.1,2.9-0.1,4.4-0.1s2.9,0,4.4,0.1c0.9,0,1.8,0.2,2.6,0.5
	c0.7,0.3,1.3,0.7,1.9,1.2c0.5,0.5,1,1.2,1.2,1.9c0.3,0.8,0.5,1.7,0.5,2.6c0.1,1.5,0.1,2.9,0.1,4.4s0,2.9-0.1,4.4
	c0,0.9-0.2,1.8-0.5,2.6c-0.6,1.4-1.7,2.5-3.1,3.1c-0.8,0.3-1.7,0.5-2.6,0.5C118.6,437.4,117.1,437.4,115.6,437.4z M115.6,421.4
	c-3,0-5.4,2.4-5.4,5.4s2.4,5.4,5.4,5.4s5.4-2.4,5.4-5.4S118.6,421.4,115.6,421.4z M121.2,419.9c-0.7,0-1.3,0.6-1.3,1.3
	c0,0.7,0.6,1.3,1.3,1.3c0.7,0,1.3-0.6,1.3-1.3C122.5,420.5,122,419.9,121.2,419.9z M115.6,430.4c-1.9,0-3.5-1.6-3.5-3.5
	s1.6-3.5,3.5-3.5s3.5,1.6,3.5,3.5S117.6,430.4,115.6,430.4z"/>
<path d="M48.7,486.3h-0.5c-1.9,0-3.6-0.9-4.6-2.5v8.5c0,3.5-2.8,6.3-6.3,6.3s-6.3-2.8-6.3-6.3s2.8-6.3,6.3-6.3h0.4v3.1h-0.4
	c-1.8,0-3.2,1.4-3.2,3.2c0,1.8,1.4,3.2,3.2,3.2s3.3-1.4,3.3-3.2v-14.5h3c0.3,2.7,2.4,4.7,5.1,5V486.3z"/>
<path d="M114,493.2c-0.7,3.4-1.5,6.8-3.8,8.5c-0.7-5.2,1.1-9.1,1.9-13.3c-1.4-2.4,0.2-7.3,3.2-6.1c3.7,1.5-3.2,9,1.4,9.9
	c4.9,1,6.9-8.5,3.8-11.5c-4.4-4.4-12.7-0.1-11.7,6.2c0.2,1.6,1.9,2,0.6,4.2c-2.8-0.6-3.6-2.8-3.5-5.8c0.2-4.8,4.3-8.2,8.5-8.6
	c5.3-0.6,10.2,1.9,10.9,6.9c0.8,5.6-2.4,11.6-8,11.2C115.9,494.7,115.2,493.9,114,493.2z"/>
</svg>
