<?xml version="1.0" encoding="UTF-8"?><svg id="b" xmlns="http://www.w3.org/2000/svg" viewBox="0 0 40 25"><path d="M35.382,24H4.618c-1.437,0-2.587-1.15-2.587-2.587V3.587c0-1.437,1.15-2.587,2.587-2.587h30.764c1.437,0,2.587,1.15,2.587,2.587v17.826c0,1.437-1.15,2.587-2.587,2.587Z" style="fill:none; stroke:#000; stroke-miterlimit:10;"/><path d="M10.56,11.324h-5.263c-.246,0-.443-.216-.443-.485v-3.345c0-.27.197-.485.443-.485h5.263c.246,0,.443.216.443.485v3.345c0,.27-.197.485-.443.485Z" style="fill:none; stroke:#000; stroke-miterlimit:10; stroke-width:.5px;"/><line x1="12.894" y1="15.203" x2="19.198" y2="15.203" style="fill:none; stroke:#000; stroke-miterlimit:10;"/><line x1="4.699" y1="15.203" x2="11.003" y2="15.203" style="fill:none; stroke:#000; stroke-miterlimit:10;"/><line x1="21.089" y1="15.203" x2="27.393" y2="15.203" style="fill:none; stroke:#000; stroke-miterlimit:10;"/><line x1="28.654" y1="15.203" x2="34.958" y2="15.203" style="fill:none; stroke:#000; stroke-miterlimit:10;"/><line x1="4.699" y1="18.986" x2="19.198" y2="18.986" style="fill:none; stroke:#000; stroke-miterlimit:10; stroke-width:.5px;"/></svg>